<svg width="135" height="34" viewBox="0 0 135 34" fill="none" xmlns="http://www.w3.org/2000/svg">
<path d="M10.7727 7H9.36364C9.2803 6.5947 9.13447 6.23864 8.92614 5.93182C8.72159 5.625 8.47159 5.36742 8.17614 5.15909C7.88447 4.94697 7.56061 4.78788 7.20455 4.68182C6.84849 4.57576 6.47727 4.52273 6.09091 4.52273C5.38636 4.52273 4.74811 4.70076 4.17614 5.05682C3.60795 5.41288 3.1553 5.9375 2.81818 6.63068C2.48485 7.32386 2.31818 8.17424 2.31818 9.18182C2.31818 10.1894 2.48485 11.0398 2.81818 11.733C3.1553 12.4261 3.60795 12.9508 4.17614 13.3068C4.74811 13.6629 5.38636 13.8409 6.09091 13.8409C6.47727 13.8409 6.84849 13.7879 7.20455 13.6818C7.56061 13.5758 7.88447 13.4186 8.17614 13.2102C8.47159 12.9981 8.72159 12.7386 8.92614 12.4318C9.13447 12.1212 9.2803 11.7652 9.36364 11.3636H10.7727C10.6667 11.9583 10.4735 12.4905 10.1932 12.9602C9.91288 13.4299 9.56439 13.8295 9.14773 14.1591C8.73106 14.4848 8.26326 14.733 7.74432 14.9034C7.22917 15.0739 6.67803 15.1591 6.09091 15.1591C5.09849 15.1591 4.21591 14.9167 3.44318 14.4318C2.67045 13.947 2.0625 13.2576 1.61932 12.3636C1.17614 11.4697 0.954545 10.4091 0.954545 9.18182C0.954545 7.95455 1.17614 6.89394 1.61932 6C2.0625 5.10606 2.67045 4.41667 3.44318 3.93182C4.21591 3.44697 5.09849 3.20455 6.09091 3.20455C6.67803 3.20455 7.22917 3.28977 7.74432 3.46023C8.26326 3.63068 8.73106 3.88068 9.14773 4.21023C9.56439 4.53598 9.91288 4.93371 10.1932 5.40341C10.4735 5.86932 10.6667 6.40151 10.7727 7ZM12.4134 4.61364V3.36364H21.1406V4.61364H17.4815V15H16.0724V4.61364H12.4134ZM32.6491 9.18182C32.6491 10.4091 32.4276 11.4697 31.9844 12.3636C31.5412 13.2576 30.9332 13.947 30.1605 14.4318C29.3878 14.9167 28.5052 15.1591 27.5128 15.1591C26.5204 15.1591 25.6378 14.9167 24.8651 14.4318C24.0923 13.947 23.4844 13.2576 23.0412 12.3636C22.598 11.4697 22.3764 10.4091 22.3764 9.18182C22.3764 7.95455 22.598 6.89394 23.0412 6C23.4844 5.10606 24.0923 4.41667 24.8651 3.93182C25.6378 3.44697 26.5204 3.20455 27.5128 3.20455C28.5052 3.20455 29.3878 3.44697 30.1605 3.93182C30.9332 4.41667 31.5412 5.10606 31.9844 6C32.4276 6.89394 32.6491 7.95455 32.6491 9.18182ZM31.2855 9.18182C31.2855 8.17424 31.117 7.32386 30.7798 6.63068C30.4465 5.9375 29.9938 5.41288 29.4219 5.05682C28.8537 4.70076 28.2173 4.52273 27.5128 4.52273C26.8082 4.52273 26.17 4.70076 25.598 5.05682C25.0298 5.41288 24.5772 5.9375 24.2401 6.63068C23.9067 7.32386 23.7401 8.17424 23.7401 9.18182C23.7401 10.1894 23.9067 11.0398 24.2401 11.733C24.5772 12.4261 25.0298 12.9508 25.598 13.3068C26.17 13.6629 26.8082 13.8409 27.5128 13.8409C28.2173 13.8409 28.8537 13.6629 29.4219 13.3068C29.9938 12.9508 30.4465 12.4261 30.7798 11.733C31.117 11.0398 31.2855 10.1894 31.2855 9.18182ZM35.0185 3.36364H36.7003L40.6548 13.0227H40.7912L44.7457 3.36364H46.4276V15H45.1094V6.15909H44.9957L41.3594 15H40.0866L36.4503 6.15909H36.3366V15H35.0185V3.36364ZM49.7301 15H48.2528L52.5256 3.36364H53.9801L58.2528 15H56.7756L53.2983 5.20455H53.2074L49.7301 15ZM50.2756 10.4545H56.2301V11.7045H50.2756V10.4545ZM58.0696 4.61364V3.36364H66.7969V4.61364H63.1378V15H61.7287V4.61364H58.0696ZM78.3054 9.18182C78.3054 10.4091 78.0838 11.4697 77.6406 12.3636C77.1974 13.2576 76.5895 13.947 75.8168 14.4318C75.044 14.9167 74.1615 15.1591 73.169 15.1591C72.1766 15.1591 71.294 14.9167 70.5213 14.4318C69.7486 13.947 69.1406 13.2576 68.6974 12.3636C68.2543 11.4697 68.0327 10.4091 68.0327 9.18182C68.0327 7.95455 68.2543 6.89394 68.6974 6C69.1406 5.10606 69.7486 4.41667 70.5213 3.93182C71.294 3.44697 72.1766 3.20455 73.169 3.20455C74.1615 3.20455 75.044 3.44697 75.8168 3.93182C76.5895 4.41667 77.1974 5.10606 77.6406 6C78.0838 6.89394 78.3054 7.95455 78.3054 9.18182ZM76.9418 9.18182C76.9418 8.17424 76.7732 7.32386 76.4361 6.63068C76.1027 5.9375 75.6501 5.41288 75.0781 5.05682C74.5099 4.70076 73.8736 4.52273 73.169 4.52273C72.4645 4.52273 71.8262 4.70076 71.2543 5.05682C70.6861 5.41288 70.2334 5.9375 69.8963 6.63068C69.563 7.32386 69.3963 8.17424 69.3963 9.18182C69.3963 10.1894 69.563 11.0398 69.8963 11.733C70.2334 12.4261 70.6861 12.9508 71.2543 13.3068C71.8262 13.6629 72.4645 13.8409 73.169 13.8409C73.8736 13.8409 74.5099 13.6629 75.0781 13.3068C75.6501 12.9508 76.1027 12.4261 76.4361 11.733C76.7732 11.0398 76.9418 10.1894 76.9418 9.18182ZM79.6747 15V13.7045H80.0156C80.5005 13.7045 80.8774 13.5492 81.1463 13.2386C81.4152 12.928 81.6084 12.4261 81.7259 11.733C81.8471 11.0398 81.9285 10.1212 81.9702 8.97727L82.1747 3.36364H89.2656V15H87.8565V4.61364H83.5156L83.3338 9.25C83.2884 10.4697 83.1766 11.5076 82.9986 12.3636C82.8205 13.2197 82.508 13.8731 82.0611 14.3239C81.6141 14.7746 80.9626 15 80.1065 15H79.6747ZM101.899 9.18182C101.899 10.4091 101.678 11.4697 101.234 12.3636C100.791 13.2576 100.183 13.947 99.4105 14.4318C98.6378 14.9167 97.7552 15.1591 96.7628 15.1591C95.7704 15.1591 94.8878 14.9167 94.1151 14.4318C93.3423 13.947 92.7344 13.2576 92.2912 12.3636C91.848 11.4697 91.6264 10.4091 91.6264 9.18182C91.6264 7.95455 91.848 6.89394 92.2912 6C92.7344 5.10606 93.3423 4.41667 94.1151 3.93182C94.8878 3.44697 95.7704 3.20455 96.7628 3.20455C97.7552 3.20455 98.6378 3.44697 99.4105 3.93182C100.183 4.41667 100.791 5.10606 101.234 6C101.678 6.89394 101.899 7.95455 101.899 9.18182ZM100.536 9.18182C100.536 8.17424 100.367 7.32386 100.03 6.63068C99.6965 5.9375 99.2438 5.41288 98.6719 5.05682C98.1037 4.70076 97.4673 4.52273 96.7628 4.52273C96.0582 4.52273 95.42 4.70076 94.848 5.05682C94.2798 5.41288 93.8272 5.9375 93.4901 6.63068C93.1567 7.32386 92.9901 8.17424 92.9901 9.18182C92.9901 10.1894 93.1567 11.0398 93.4901 11.733C93.8272 12.4261 94.2798 12.9508 94.848 13.3068C95.42 13.6629 96.0582 13.8409 96.7628 13.8409C97.4673 13.8409 98.1037 13.6629 98.6719 13.3068C99.2438 12.9508 99.6965 12.4261 100.03 11.733C100.367 11.0398 100.536 10.1894 100.536 9.18182ZM111.291 3.36364V4.61364H105.678V15H104.268V3.36364H111.291ZM113.472 3.36364H114.858V12.5227H114.972L121.335 3.36364H122.699V15H121.29V5.86364H121.176L114.835 15H113.472V3.36364ZM133.428 15H132.018V4.61364H129.541C128.912 4.61364 128.407 4.71023 128.024 4.90341C127.642 5.0928 127.363 5.36174 127.189 5.71023C127.015 6.05871 126.928 6.46591 126.928 6.93182C126.928 7.39773 127.013 7.79924 127.183 8.13636C127.357 8.4697 127.634 8.72727 128.013 8.90909C128.395 9.09091 128.897 9.18182 129.518 9.18182H132.655V10.4545H129.473C128.571 10.4545 127.831 10.3049 127.251 10.0057C126.672 9.70265 126.242 9.28598 125.962 8.75568C125.681 8.22538 125.541 7.61742 125.541 6.93182C125.541 6.24621 125.681 5.63447 125.962 5.09659C126.242 4.55871 126.674 4.13636 127.257 3.82955C127.84 3.51894 128.587 3.36364 129.496 3.36364H133.428V15ZM127.95 9.77273H129.541L126.723 15H125.087L127.95 9.77273Z" fill="white"/>
<path d="M1.40909 30V18.3636H8.43182V19.6136H2.81818V23.25H5.77273C6.60606 23.25 7.30871 23.3864 7.88068 23.6591C8.45644 23.9318 8.89205 24.3163 9.1875 24.8125C9.48674 25.3087 9.63636 25.8939 9.63636 26.5682C9.63636 27.2424 9.48674 27.8371 9.1875 28.3523C8.89205 28.8674 8.45644 29.2708 7.88068 29.5625C7.30871 29.8542 6.60606 30 5.77273 30H1.40909ZM2.81818 28.7727H5.77273C6.30303 28.7727 6.75189 28.6667 7.11932 28.4545C7.49053 28.2386 7.77083 27.9621 7.96023 27.625C8.15341 27.2841 8.25 26.9242 8.25 26.5455C8.25 25.9886 8.03598 25.5095 7.60795 25.108C7.17992 24.7027 6.56818 24.5 5.77273 24.5H2.81818V28.7727ZM11.956 30V18.3636H18.9787V19.6136H13.3651V23.5455H18.6151V24.7955H13.3651V28.75H19.0696V30H11.956ZM20.5185 30V28.7045H20.8594C21.3442 28.7045 21.7211 28.5492 21.9901 28.2386C22.259 27.928 22.4522 27.4261 22.5696 26.733C22.6908 26.0398 22.7723 25.1212 22.8139 23.9773L23.0185 18.3636H30.1094V30H28.7003V19.6136H24.3594L24.1776 24.25C24.1321 25.4697 24.0204 26.5076 23.8423 27.3636C23.6643 28.2197 23.3518 28.8731 22.9048 29.3239C22.4579 29.7746 21.8063 30 20.9503 30H20.5185ZM40.8338 30H39.4247V19.6136H36.9474C36.3187 19.6136 35.813 19.7102 35.4304 19.9034C35.0478 20.0928 34.7694 20.3617 34.5952 20.7102C34.4209 21.0587 34.3338 21.4659 34.3338 21.9318C34.3338 22.3977 34.419 22.7992 34.5895 23.1364C34.7637 23.4697 35.0402 23.7273 35.419 23.9091C35.8016 24.0909 36.3035 24.1818 36.9247 24.1818H40.0611V25.4545H36.8793C35.9777 25.4545 35.2372 25.3049 34.6577 25.0057C34.0781 24.7027 33.6482 24.286 33.3679 23.7557C33.0876 23.2254 32.9474 22.6174 32.9474 21.9318C32.9474 21.2462 33.0876 20.6345 33.3679 20.0966C33.6482 19.5587 34.08 19.1364 34.6634 18.8295C35.2467 18.5189 35.9929 18.3636 36.902 18.3636H40.8338V30ZM35.3565 24.7727H36.9474L34.1293 30H32.4929L35.3565 24.7727ZM43.6591 30V18.3636H50.6818V19.6136H45.0682V23.5455H50.3182V24.7955H45.0682V28.75H50.7727V30H43.6591ZM53.2216 30V18.3636H57.2898C58.1004 18.3636 58.7689 18.5038 59.2955 18.7841C59.822 19.0606 60.214 19.4337 60.4716 19.9034C60.7292 20.3693 60.858 20.8864 60.858 21.4545C60.858 21.9545 60.7689 22.3674 60.5909 22.6932C60.4167 23.0189 60.1856 23.2765 59.8977 23.4659C59.6136 23.6553 59.3049 23.7955 58.9716 23.8864V24C59.3277 24.0227 59.6856 24.1477 60.0455 24.375C60.4053 24.6023 60.7064 24.928 60.9489 25.3523C61.1913 25.7765 61.3125 26.2955 61.3125 26.9091C61.3125 27.4924 61.1799 28.017 60.9148 28.483C60.6496 28.9489 60.2311 29.3182 59.6591 29.5909C59.0871 29.8636 58.3428 30 57.4261 30H53.2216ZM54.6307 28.75H57.4261C58.3466 28.75 59 28.572 59.3864 28.2159C59.7765 27.8561 59.9716 27.4205 59.9716 26.9091C59.9716 26.5152 59.8712 26.1515 59.6705 25.8182C59.4697 25.4811 59.1837 25.2121 58.8125 25.0114C58.4413 24.8068 58.0019 24.7045 57.4943 24.7045H54.6307V28.75ZM54.6307 23.4773H57.2443C57.6686 23.4773 58.0511 23.3939 58.392 23.2273C58.7367 23.0606 59.0095 22.8258 59.2102 22.5227C59.4148 22.2197 59.517 21.8636 59.517 21.4545C59.517 20.9432 59.339 20.5095 58.983 20.1534C58.6269 19.7936 58.0625 19.6136 57.2898 19.6136H54.6307V23.4773ZM64.1051 30H62.6278L66.9006 18.3636H68.3551L72.6278 30H71.1506L67.6733 20.2045H67.5824L64.1051 30ZM64.6506 25.4545H70.6051V26.7045H64.6506V25.4545Z" fill="white"/>
</svg>
